<?xml version="1.0" encoding="utf-8"?>
<svg xmlns="http://www.w3.org/2000/svg" xmlns:xlink="http://www.w3.org/1999/xlink" style="margin: auto; background: none; display: block; shape-rendering: auto;" width="170px" height="170px" viewBox="0 0 100 100" preserveAspectRatio="xMidYMid">
<g transform="rotate(0 50 50)">
  <rect x="48.5" y="31.5" rx="1.5" ry="3.5" width="3" height="7" fill="#fefefe">
    <animate attributeName="opacity" values="1;0" keyTimes="0;1" dur="0.6172839506172839s" begin="-0.5658436213991769s" repeatCount="indefinite"></animate>
  </rect>
</g><g transform="rotate(30 50 50)">
  <rect x="48.5" y="31.5" rx="1.5" ry="3.5" width="3" height="7" fill="#fefefe">
    <animate attributeName="opacity" values="1;0" keyTimes="0;1" dur="0.6172839506172839s" begin="-0.51440329218107s" repeatCount="indefinite"></animate>
  </rect>
</g><g transform="rotate(60 50 50)">
  <rect x="48.5" y="31.5" rx="1.5" ry="3.5" width="3" height="7" fill="#fefefe">
    <animate attributeName="opacity" values="1;0" keyTimes="0;1" dur="0.6172839506172839s" begin="-0.4629629629629629s" repeatCount="indefinite"></animate>
  </rect>
</g><g transform="rotate(90 50 50)">
  <rect x="48.5" y="31.5" rx="1.5" ry="3.5" width="3" height="7" fill="#fefefe">
    <animate attributeName="opacity" values="1;0" keyTimes="0;1" dur="0.6172839506172839s" begin="-0.4115226337448559s" repeatCount="indefinite"></animate>
  </rect>
</g><g transform="rotate(120 50 50)">
  <rect x="48.5" y="31.5" rx="1.5" ry="3.5" width="3" height="7" fill="#fefefe">
    <animate attributeName="opacity" values="1;0" keyTimes="0;1" dur="0.6172839506172839s" begin="-0.36008230452674894s" repeatCount="indefinite"></animate>
  </rect>
</g><g transform="rotate(150 50 50)">
  <rect x="48.5" y="31.5" rx="1.5" ry="3.5" width="3" height="7" fill="#fefefe">
    <animate attributeName="opacity" values="1;0" keyTimes="0;1" dur="0.6172839506172839s" begin="-0.30864197530864196s" repeatCount="indefinite"></animate>
  </rect>
</g><g transform="rotate(180 50 50)">
  <rect x="48.5" y="31.5" rx="1.5" ry="3.5" width="3" height="7" fill="#fefefe">
    <animate attributeName="opacity" values="1;0" keyTimes="0;1" dur="0.6172839506172839s" begin="-0.257201646090535s" repeatCount="indefinite"></animate>
  </rect>
</g><g transform="rotate(210 50 50)">
  <rect x="48.5" y="31.5" rx="1.5" ry="3.5" width="3" height="7" fill="#fefefe">
    <animate attributeName="opacity" values="1;0" keyTimes="0;1" dur="0.6172839506172839s" begin="-0.20576131687242796s" repeatCount="indefinite"></animate>
  </rect>
</g><g transform="rotate(240 50 50)">
  <rect x="48.5" y="31.5" rx="1.5" ry="3.5" width="3" height="7" fill="#fefefe">
    <animate attributeName="opacity" values="1;0" keyTimes="0;1" dur="0.6172839506172839s" begin="-0.15432098765432098s" repeatCount="indefinite"></animate>
  </rect>
</g><g transform="rotate(270 50 50)">
  <rect x="48.5" y="31.5" rx="1.5" ry="3.5" width="3" height="7" fill="#fefefe">
    <animate attributeName="opacity" values="1;0" keyTimes="0;1" dur="0.6172839506172839s" begin="-0.10288065843621398s" repeatCount="indefinite"></animate>
  </rect>
</g><g transform="rotate(300 50 50)">
  <rect x="48.5" y="31.5" rx="1.5" ry="3.5" width="3" height="7" fill="#fefefe">
    <animate attributeName="opacity" values="1;0" keyTimes="0;1" dur="0.6172839506172839s" begin="-0.05144032921810699s" repeatCount="indefinite"></animate>
  </rect>
</g><g transform="rotate(330 50 50)">
  <rect x="48.5" y="31.5" rx="1.5" ry="3.5" width="3" height="7" fill="#fefefe">
    <animate attributeName="opacity" values="1;0" keyTimes="0;1" dur="0.6172839506172839s" begin="0s" repeatCount="indefinite"></animate>
  </rect>
</g>
<!-- [ldio] generated by https://loading.io/ --></svg>